<?xml version="1.0" standalone="no"?>
<!DOCTYPE svg PUBLIC "-//W3C//DTD SVG 20010904//EN"
 "http://www.w3.org/TR/2001/REC-SVG-20010904/DTD/svg10.dtd">
<svg version="1.0" xmlns="http://www.w3.org/2000/svg"
 width="1693.344804pt" height="319.894358pt" viewBox="0 0 1693.344804 319.894358"
 preserveAspectRatio="xMidYMid meet">
<g transform="translate(-0.570007,320.894358) scale(0.100000,-0.100000)"
fill="#ffffff" stroke="none">
<path d="M3860 3203 c-58 -9 -152 -45 -208 -79 -46 -27 -66 -46 -82 -78 -25
-53 -27 -89 -10 -241 7 -66 13 -255 14 -420 3 -361 21 -549 82 -837 27 -128
142 -499 192 -617 18 -41 30 -76 28 -78 -9 -9 -133 141 -196 235 -57 85 -70
112 -74 155 -3 29 -31 473 -62 987 -30 514 -57 937 -60 939 -6 7 -6 2 36 -949
21 -492 38 -896 36 -897 -5 -5 -43 104 -65 187 -50 181 -61 361 -40 610 11
119 10 142 -4 192 -20 66 -69 135 -113 157 l-30 15 0 86 c1 70 5 94 26 135 20
40 25 64 25 125 -1 64 -5 83 -30 128 -20 35 -38 55 -55 59 -14 3 -37 13 -51
21 -29 16 -29 16 -104 -28 -27 -16 -61 -34 -76 -40 -14 -6 -33 -24 -43 -41
-10 -17 -30 -45 -45 -62 -15 -18 -36 -54 -46 -82 -10 -27 -24 -59 -31 -70 -37
-59 -63 -375 -37 -455 28 -84 45 -125 66 -152 32 -43 80 -88 93 -88 6 0 19
-11 28 -25 24 -36 86 -64 148 -66 98 -3 155 54 173 172 8 52 -9 155 -28 178
-8 10 -14 47 -16 94 -2 89 9 98 55 45 60 -72 64 -107 50 -433 -12 -266 18
-445 115 -675 22 -52 51 -145 64 -206 51 -242 128 -404 254 -537 73 -78 181
-148 272 -177 67 -22 81 -31 150 -101 85 -87 175 -149 261 -180 57 -21 58 -22
58 -60 l0 -39 90 0 90 0 0 40 c0 38 2 40 30 40 83 0 223 83 340 200 66 67 83
79 145 99 267 86 459 348 530 721 9 47 34 127 56 178 114 271 150 528 118 846
-9 85 -9 125 1 169 13 62 63 139 94 145 18 4 19 -2 12 -76 -3 -44 -14 -94 -23
-113 -23 -46 -23 -170 0 -230 25 -66 82 -103 155 -100 62 2 124 30 148 66 9
14 22 25 29 25 7 0 29 19 49 43 20 23 43 49 51 57 42 46 79 216 70 325 -8 106
-34 245 -49 270 -7 11 -21 43 -32 70 -10 28 -38 74 -61 103 -24 29 -43 57 -43
61 0 5 -12 14 -27 21 -16 6 -50 24 -78 40 -75 44 -75 44 -104 28 -14 -8 -37
-18 -51 -21 -17 -4 -35 -24 -55 -59 -25 -45 -29 -64 -30 -128 0 -60 5 -85 25
-125 21 -41 25 -65 26 -135 l0 -86 -30 -15 c-44 -22 -93 -91 -113 -157 -14
-50 -15 -73 -4 -192 21 -243 11 -407 -34 -587 -24 -94 -65 -216 -71 -210 -2 2
14 408 36 903 39 878 42 965 34 934 -3 -8 -31 -452 -63 -985 l-59 -971 -35
-60 c-60 -102 -221 -303 -233 -291 -2 2 10 37 28 78 50 118 165 489 192 617
60 284 79 480 81 842 1 162 8 351 15 420 16 156 15 184 -11 237 -17 34 -34 51
-87 80 -83 46 -156 71 -237 79 -78 8 -131 -1 -140 -24 -28 -64 -20 -239 14
-333 11 -30 22 -69 26 -86 4 -19 18 -41 35 -53 36 -26 130 -50 200 -51 30 0
77 -6 104 -12 l49 -12 -2 -190 c-4 -376 -41 -718 -107 -980 -44 -172 -152
-487 -203 -593 -41 -84 -58 -107 -98 -137 -101 -75 -360 -185 -436 -185 -15 0
-12 8 18 42 117 137 133 328 40 470 -13 20 -75 79 -137 131 -62 52 -130 113
-152 135 l-38 40 -37 -37 c-20 -20 -82 -75 -137 -123 -179 -153 -208 -204
-208 -358 -1 -72 4 -94 27 -144 15 -33 43 -79 63 -103 19 -24 30 -43 24 -43
-28 0 -172 55 -250 96 -149 78 -174 101 -231 216 -52 106 -159 421 -203 596
-61 240 -93 513 -105 897 -5 143 -7 263 -5 266 5 9 112 27 199 33 92 7 176 48
187 91 5 17 17 57 28 90 25 81 31 119 31 217 0 93 -12 133 -45 142 -23 6 -106
6 -146 -1z m-3 -2384 c50 -47 94 -101 122 -149 25 -41 67 -109 95 -150 28 -41
55 -80 59 -87 12 -20 -87 22 -149 63 -76 51 -182 168 -233 258 -42 73 -101
228 -116 306 -7 29 3 20 68 -66 42 -56 111 -134 154 -175z m1884 186 c-75
-274 -241 -486 -440 -565 -34 -13 -49 -16 -44 -7 4 7 31 46 59 87 28 41 70
109 94 150 29 49 72 102 129 156 47 46 115 123 151 172 36 49 67 88 68 86 2
-1 -6 -37 -17 -79z m-1546 -420 c50 -24 133 -56 185 -71 73 -20 103 -34 129
-59 l34 -33 -44 -13 c-24 -7 -97 -13 -163 -13 l-118 -1 -30 35 c-25 29 -134
189 -163 239 -4 8 12 2 36 -13 24 -15 85 -47 134 -71z m1169 83 c-25 -43 -138
-208 -161 -236 -26 -31 -33 -34 -103 -39 -73 -5 -176 6 -252 27 -37 11 -38 11
-22 35 9 14 26 25 38 25 35 0 202 48 279 80 40 16 106 50 147 74 85 51 84 50
74 34z m-430 -304 c43 -8 106 -14 139 -14 l61 0 -39 -41 c-90 -92 -224 -169
-298 -169 l-32 0 7 117 c3 65 7 122 7 126 1 8 15 6 155 -19z m-370 -36 c3 -29
6 -84 6 -121 0 -66 -1 -68 -22 -61 -81 24 -181 89 -253 163 l-39 41 64 0 c36
1 94 7 130 14 109 23 106 23 114 -36z"/>
<path d="M11151 1962 c-266 -609 -487 -1110 -490 -1114 -4 -4 -224 492 -490
1103 -267 610 -488 1106 -492 1102 -3 -4 -145 -595 -313 -1313 -169 -718 -310
-1315 -313 -1327 -5 -23 -5 -23 121 -23 69 0 126 3 126 6 0 13 441 1931 448
1948 6 15 42 -61 148 -310 77 -181 280 -656 450 -1056 273 -644 310 -725 320
-705 9 17 806 1880 880 2056 8 19 16 32 19 30 2 -3 103 -439 225 -969 122
-531 224 -973 226 -982 5 -16 20 -18 130 -18 115 0 125 1 120 18 -3 9 -143
602 -311 1317 -168 715 -309 1310 -313 1322 -5 18 -116 -226 -491 -1085z"/>
<path d="M13607 3033 c-4 -7 -1105 -2502 -1148 -2601 l-19 -43 131 3 131 3
176 408 177 407 599 -2 599 -3 176 -407 176 -408 133 0 132 0 -19 37 c-10 21
-292 616 -626 1323 -334 707 -609 1286 -610 1288 -2 2 -5 0 -8 -5z m532 -1585
c1 -5 -219 -8 -489 -8 -269 0 -490 3 -490 6 0 4 102 243 227 531 l227 524 263
-523 c144 -288 262 -526 262 -530z"/>
<path d="M1235 2979 c-324 -44 -623 -188 -846 -409 -155 -154 -263 -329 -327
-530 -43 -137 -57 -227 -56 -380 0 -342 139 -650 406 -906 195 -186 437 -311
718 -371 134 -28 440 -26 578 5 289 65 514 180 703 359 210 201 302 424 316
771 l6 152 -601 0 -602 0 0 -115 0 -115 475 0 475 0 -6 -42 c-15 -112 -39
-196 -81 -280 -120 -240 -423 -443 -767 -513 -100 -20 -312 -21 -426 -1 -563
99 -980 595 -947 1126 19 299 187 594 452 792 106 80 294 171 420 204 187 48
438 44 631 -12 235 -67 464 -227 619 -429 l57 -74 99 75 c114 86 114 65 4 194
-205 240 -499 414 -813 480 -113 24 -376 34 -487 19z"/>
<path d="M6830 1676 l0 -1286 388 0 c213 0 439 5 502 11 394 36 685 165 935
414 356 355 458 840 276 1311 -123 317 -426 605 -769 728 -233 84 -349 97
-884 103 l-448 5 0 -1286z m965 1030 c141 -25 231 -53 350 -110 294 -141 503
-387 583 -685 34 -130 36 -345 4 -462 -100 -369 -414 -679 -785 -775 -156 -40
-211 -45 -534 -51 l-323 -5 0 1057 0 1057 308 -5 c215 -3 334 -10 397 -21z"/>
<path d="M15130 1676 l0 -1286 130 0 130 0 0 589 0 589 408 5 c442 6 488 10
664 67 241 77 399 241 458 474 37 147 20 290 -51 436 -75 152 -235 287 -409
345 -164 54 -203 57 -787 62 l-543 5 0 -1286z m1135 1030 c168 -39 290 -127
352 -254 37 -74 38 -79 38 -186 0 -106 -2 -114 -33 -173 -64 -124 -194 -220
-359 -265 -72 -20 -107 -22 -475 -26 l-398 -4 0 467 0 467 403 -5 c323 -3 416
-8 472 -21z"/>
</g>
</svg>
