<svg id="Layer_1" data-name="Layer 1" xmlns="http://www.w3.org/2000/svg" viewBox="0 0 716.96 443.98"><defs><style>.cls-1,.cls-2{fill:none;}.cls-2{stroke:#fff;stroke-miterlimit:10;stroke-width:2.12px;}.cls-3{fill:#fff;}</style></defs><title>logo</title><rect class="cls-1" width="716.96" height="443.98"/><path class="cls-2" d="M176.66,236.2"/><path class="cls-2" d="M150.93,249.45"/><path class="cls-2" d="M220.16,217.34"/><path class="cls-2" d="M176.66,198.34"/><path class="cls-2" d="M150.93,185.1"/><path class="cls-2" d="M220.16,217.21"/><path class="cls-3" d="M398.71,280.48l-34.85-58c-1.44.08-6.11,0.18-21.64,0.3v57.67H325.94V143.61h37.49c14.47,0,25.58,3.52,33,10.45s11.22,16.48,11.22,28.34A35.72,35.72,0,0,1,399,206c-5.49,6.52-11.85,11-18.94,13.32l38,61.2H398.71Zm-43.23-70.4c11.32,0,20.17-2.58,26.29-7.67a24.41,24.41,0,0,0,9.16-19.58c0-9.14-2.55-15.81-7.6-19.83s-13.69-6.13-25.53-6.13h-15.6v53.21h13.27Z"/><path class="cls-3" d="M426.68,280.48V143.61h39.56c12.73,0,22.84,3,30,8.86s10.91,14.53,10.91,25.61c0,8.77-2.72,15.71-8.07,20.62a37.27,37.27,0,0,1-16.25,8.62,40.85,40.85,0,0,1,20.52,10.19c6.7,6.14,10.1,15.1,10.1,26.62,0,11.08-4.18,20-12.43,26.57s-20.05,9.8-35.24,9.8H426.68Zm38.7-12.66c10-.11,17.76-2.29,23.21-6.48s8.1-10.11,8.1-17.75c0-8.36-2.75-15.23-8.17-20.4s-14.49-7.8-26.94-7.8H443v52.43h22.42Zm-9.67-65.26c11.47,0,20.35-2.07,26.4-6.16s9-10,9-17.72c0-7.26-2.26-12.86-6.71-16.65s-13.32-5.76-26.24-5.76H443v46.3h12.75Z"/><polygon class="cls-3" points="592.48 280.48 543.64 219.72 538.77 225.25 538.77 280.48 522.49 280.48 522.49 143.61 538.77 143.61 538.77 206.54 592.06 143.61 611.57 143.61 554.21 208.06 613.9 280.48 592.48 280.48"/><path class="cls-3" d="M340.18,312a6.3,6.3,0,0,0,1.54-4.17,6.54,6.54,0,0,0-2-5q-2-1.85-5.87-1.85h-6.64V325.4h2.65V315q3.94,0,4.14-.06l6.31,10.49h3.15l-6.84-11A7.36,7.36,0,0,0,340.18,312Zm-7.76,1h-2.55V303h3q3.28,0,4.71,1.14a4.46,4.46,0,0,1,1.43,3.7,4.54,4.54,0,0,1-1.71,3.66A7.39,7.39,0,0,1,332.43,313Z"/><path class="cls-3" d="M355.75,322.95a5.67,5.67,0,0,1-2.81.67,4,4,0,0,1-3.5-2,8.74,8.74,0,0,1-1.28-4.8h11.31a19.09,19.09,0,0,0,0-2.33,6.73,6.73,0,0,0-2-4.58,6.59,6.59,0,0,0-4.72-1.64,6.37,6.37,0,0,0-5.36,2.35,9.63,9.63,0,0,0-1.83,6.08,9.89,9.89,0,0,0,2,6.63,6.67,6.67,0,0,0,5.33,2.35,8.25,8.25,0,0,0,4.15-.91,8.93,8.93,0,0,0,2.69-2.38L358,320.95A7.34,7.34,0,0,1,355.75,322.95Zm-6.36-11.24a3.89,3.89,0,0,1,3.33-1.51,3.55,3.55,0,0,1,3.23,1.45,6.68,6.68,0,0,1,1,3.47h-8.76A6,6,0,0,1,349.39,311.71Z"/><path class="cls-3" d="M373.2,312.36V312.3a6.74,6.74,0,0,0,3.49-1.66,4.67,4.67,0,0,0,1.41-3.62,5.5,5.5,0,0,0-1.92-4.52,8.21,8.21,0,0,0-5.34-1.57h-7V325.4h6.93a9.91,9.91,0,0,0,6.29-1.74,5.68,5.68,0,0,0,2.19-4.69,6.07,6.07,0,0,0-1.78-4.71A7.29,7.29,0,0,0,373.2,312.36Zm-6.72-9.43h2.89q3.58,0,4.84,1.08a3.87,3.87,0,0,1,1.27,3.12,3.76,3.76,0,0,1-1.69,3.33,8.67,8.67,0,0,1-4.86,1.14h-2.45v-8.67ZM375,322.2a7,7,0,0,1-4.29,1.2h-4.2v-9.78H370q3.45,0,5,1.45a5,5,0,0,1,1.52,3.79A4,4,0,0,1,375,322.2Z"/><path class="cls-3" d="M396.41,308.53h-2.47v13.15a6,6,0,0,1-2.17,1.29,9.23,9.23,0,0,1-3.14.49,2.93,2.93,0,0,1-2.23-.89,3.61,3.61,0,0,1-.85-2.59V308.53h-2.47v11.76a5.84,5.84,0,0,0,1.26,3.9,4.91,4.91,0,0,0,4,1.49,7.24,7.24,0,0,0,1.53-.18,11.73,11.73,0,0,0,2-.7,9.73,9.73,0,0,0,2-1.15c0,0.57.1,1.15,0.19,1.75h2.51a12.28,12.28,0,0,1-.22-2.2V308.53Z"/><path class="cls-3" d="M403.1,301.57A1.35,1.35,0,0,0,402,302a1.54,1.54,0,0,0-.41,1,1.43,1.43,0,0,0,.44,1.07,1.44,1.44,0,0,0,1,.43,1.4,1.4,0,0,0,1-.43,1.43,1.43,0,0,0,.44-1.07,1.56,1.56,0,0,0-.4-1A1.31,1.31,0,0,0,403.1,301.57Z"/><rect class="cls-3" x="401.86" y="308.53" width="2.47" height="16.87"/><path class="cls-3" d="M413.79,323.57l-0.37,0a2,2,0,0,1-1.31-.34,1.74,1.74,0,0,1-.37-1.3v-21h-2.47v21.61a3.45,3.45,0,0,0,.68,2.33,2.38,2.38,0,0,0,1.9.78,4.76,4.76,0,0,0,.7-0.06,5.94,5.94,0,0,0,.75-0.16c0.25-.07.49-0.14,0.72-0.23l0.62-.25-0.36-1.44Z"/><path class="cls-3" d="M431.09,320.07V300.93h-2.47v8.2a11.59,11.59,0,0,0-4.33-.86,6.87,6.87,0,0,0-5.57,2.53,9.57,9.57,0,0,0-2.1,6.33,9.45,9.45,0,0,0,1.92,6.29,5.89,5.89,0,0,0,4.66,2.27,6.86,6.86,0,0,0,2.87-.63,10.66,10.66,0,0,0,2.69-1.79h0.08a5,5,0,0,0,1,2.14h2.11a9.07,9.07,0,0,1-.65-2.21A22.49,22.49,0,0,1,431.09,320.07Zm-2.47,1.77a9.39,9.39,0,0,1-4.92,1.67,3.77,3.77,0,0,1-3.19-1.92,8.1,8.1,0,0,1-1.29-4.62,8.21,8.21,0,0,1,1.29-4.54,4.64,4.64,0,0,1,4.22-2,13.57,13.57,0,0,1,3.89.53v10.89Z"/><path class="cls-3" d="M437.79,301.57a1.35,1.35,0,0,0-1.08.47,1.54,1.54,0,0,0-.41,1,1.43,1.43,0,0,0,.44,1.07,1.44,1.44,0,0,0,1,.43,1.4,1.4,0,0,0,1-.43,1.43,1.43,0,0,0,.44-1.07,1.56,1.56,0,0,0-.4-1A1.31,1.31,0,0,0,437.79,301.57Z"/><rect class="cls-3" x="436.55" y="308.53" width="2.47" height="16.87"/><path class="cls-3" d="M452,308.27a8.56,8.56,0,0,0-3,.54,10.56,10.56,0,0,0-2.54,1.35,11.28,11.28,0,0,0-.19-1.62H444a18.14,18.14,0,0,1,.14,2.17v14.7h2.47V311.84a10.16,10.16,0,0,1,2.5-1.13,9.39,9.39,0,0,1,2.75-.44,2.82,2.82,0,0,1,2.41,1A4.43,4.43,0,0,1,455,314V325.4h2.47V313.61a5.33,5.33,0,0,0-1.4-4A5.5,5.5,0,0,0,452,308.27Z"/><path class="cls-3" d="M473,309.45a7.48,7.48,0,0,0-2-.89,8.13,8.13,0,0,0-2.15-.3,7.81,7.81,0,0,0-2.42.38,6.61,6.61,0,0,0-2.11,1.12,5.62,5.62,0,0,0-1.49,1.84,5.42,5.42,0,0,0-.57,2.52,5.77,5.77,0,0,0,.67,2.91,5.23,5.23,0,0,0,2,1.91,6,6,0,0,0-1,.36,5.46,5.46,0,0,0-1,.63,4,4,0,0,0-.83.84,1.73,1.73,0,0,0-.34,1,1.89,1.89,0,0,0,.2.9,2.41,2.41,0,0,0,.52.67,3.94,3.94,0,0,0,.73.52c0.27,0.15.55,0.29,0.83,0.43a7.8,7.8,0,0,0-1,.81,6.33,6.33,0,0,0-.84,1,4.86,4.86,0,0,0-.58,1.12,3.44,3.44,0,0,0-.21,1.18,3.65,3.65,0,0,0,.48,1.91,3.91,3.91,0,0,0,1.34,1.33,6.49,6.49,0,0,0,2.05.77,12.81,12.81,0,0,0,2.63.25c0.6,0,1.24,0,1.91-.07a15,15,0,0,0,2-.27,11.24,11.24,0,0,0,1.87-.55,5.9,5.9,0,0,0,1.57-.9,4.22,4.22,0,0,0,1.08-1.34,4,4,0,0,0,.41-1.86,3.2,3.2,0,0,0-.55-1.9,4.63,4.63,0,0,0-1.44-1.3,8.37,8.37,0,0,0-2-.85,35.06,35.06,0,0,0-3.52-.71q-2.27-.31-3.16-0.48a7,7,0,0,1-1.44-.4,0.73,0.73,0,0,1-.55-0.64,1,1,0,0,1,.26-0.66,3,3,0,0,1,.63-0.54,3.91,3.91,0,0,1,.76-0.37,3.19,3.19,0,0,1,.64-0.17,9.65,9.65,0,0,0,2.2.27,8.23,8.23,0,0,0,2.41-.35,5.93,5.93,0,0,0,2-1.08,5.25,5.25,0,0,0,1.42-1.84,6.11,6.11,0,0,0,.53-2.65,5.22,5.22,0,0,0-.27-1.77,6.38,6.38,0,0,0-.66-1.35,7.23,7.23,0,0,1,1-.23,6.84,6.84,0,0,1,1.16-.06l1,0,0.28-2a13.59,13.59,0,0,0-2.18.19A12,12,0,0,0,473,309.45ZM464,326.24a6.8,6.8,0,0,1,1.08-1.53l0.77,0.07,1.19,0.11c0.45,0,1.09.13,1.9,0.26a19.88,19.88,0,0,1,2.59.61,7.42,7.42,0,0,1,1.31.59,3.21,3.21,0,0,1,.89.76,1.55,1.55,0,0,1,.34,1,1.62,1.62,0,0,1-.32,1,2.89,2.89,0,0,1-.84.74,5.5,5.5,0,0,1-1.16.52,10.39,10.39,0,0,1-1.31.34c-0.44.08-.87,0.14-1.28,0.18s-0.76.05-1.05,0.05a9.2,9.2,0,0,1-1.59-.14,4.53,4.53,0,0,1-1.44-.5,3,3,0,0,1-1-1,2.8,2.8,0,0,1-.41-1.57A3.32,3.32,0,0,1,464,326.24Zm8.12-10.57a3.85,3.85,0,0,1-.63,1.42,2.9,2.9,0,0,1-1.12.91,3.84,3.84,0,0,1-1.65.32A3.91,3.91,0,0,1,467,318a3.73,3.73,0,0,1-1.24-1,4,4,0,0,1-.73-1.34,5,5,0,0,1-.24-1.53,6.28,6.28,0,0,1,.19-1.52,3.66,3.66,0,0,1,.64-1.34,3.31,3.31,0,0,1,1.2-1,4.29,4.29,0,0,1,1.89-.37,3.81,3.81,0,0,1,1.62.32,3.21,3.21,0,0,1,1.13.85,3.48,3.48,0,0,1,.66,1.24,5,5,0,0,1,.22,1.48A8,8,0,0,1,472.17,315.67Z"/><path class="cls-3" d="M503,323.74a1.16,1.16,0,0,1-1.11-.57,6.25,6.25,0,0,1-.31-2.49v-7.51a4.47,4.47,0,0,0-1.53-3.61,6,6,0,0,0-4.06-1.3,10.13,10.13,0,0,0-3.93.75,7.8,7.8,0,0,0-2.59,1.58l1.3,1.67a10.31,10.31,0,0,1,2-1.32,6.57,6.57,0,0,1,3.17-.74,3.43,3.43,0,0,1,2.3.75,3.6,3.6,0,0,1,.88,2.83v1.31a20.53,20.53,0,0,0-5.34.64,8.26,8.26,0,0,0-3.78,2,4.9,4.9,0,0,0-1.41,3.62,4.05,4.05,0,0,0,1.23,3.18,4.78,4.78,0,0,0,3.32,1.1,7.61,7.61,0,0,0,3.29-.73,9,9,0,0,0,2.83-2.16h0.09a3.47,3.47,0,0,0,.85,2.24,2.23,2.23,0,0,0,1.55.65,5,5,0,0,0,1.52-.25,3,3,0,0,0,1.19-.66l-0.39-1.14A5.38,5.38,0,0,1,503,323.74Zm-3.89-2.23a8.12,8.12,0,0,1-2.08,1.3,6.93,6.93,0,0,1-3,.7,2.93,2.93,0,0,1-2-.63,2.44,2.44,0,0,1-.73-2,3.56,3.56,0,0,1,2.15-3.28,12.42,12.42,0,0,1,5.66-1.19v5Z"/><polygon class="cls-3" points="532.8 300.93 529.67 300.93 519.81 312.56 519.81 300.93 517.16 300.93 517.16 325.4 519.81 325.4 519.81 315.5 520.84 314.32 529.74 325.4 533.24 325.4 522.56 312.44 532.8 300.93"/><rect class="cls-3" x="536.91" y="308.53" width="2.47" height="16.87"/><path class="cls-3" d="M538.15,301.57a1.35,1.35,0,0,0-1.08.47,1.54,1.54,0,0,0-.41,1,1.43,1.43,0,0,0,.44,1.07,1.44,1.44,0,0,0,1,.43,1.4,1.4,0,0,0,1-.43,1.43,1.43,0,0,0,.44-1.07,1.56,1.56,0,0,0-.4-1A1.31,1.31,0,0,0,538.15,301.57Z"/><path class="cls-3" d="M558.22,320.07V300.93h-2.47v8.2a11.59,11.59,0,0,0-4.33-.86,6.87,6.87,0,0,0-5.57,2.53,9.57,9.57,0,0,0-2.1,6.33,9.45,9.45,0,0,0,1.92,6.29,5.89,5.89,0,0,0,4.66,2.27,6.86,6.86,0,0,0,2.87-.63,10.66,10.66,0,0,0,2.69-1.79H556a5,5,0,0,0,1,2.14H559a9.07,9.07,0,0,1-.65-2.21A22.49,22.49,0,0,1,558.22,320.07Zm-2.47,1.77a9.39,9.39,0,0,1-4.92,1.67,3.77,3.77,0,0,1-3.19-1.92,8.1,8.1,0,0,1-1.29-4.62,8.21,8.21,0,0,1,1.29-4.54,4.64,4.64,0,0,1,4.22-2,13.57,13.57,0,0,1,3.89.53v10.89Z"/><path class="cls-3" d="M571.49,308.27a8.56,8.56,0,0,0-3,.54,10.56,10.56,0,0,0-2.54,1.35,11.28,11.28,0,0,0-.19-1.62h-2.3a18.14,18.14,0,0,1,.14,2.17v14.7H566V311.84a10.16,10.16,0,0,1,2.5-1.13,9.39,9.39,0,0,1,2.75-.44,2.82,2.82,0,0,1,2.41,1,4.43,4.43,0,0,1,.76,2.72V325.4h2.47V313.61a5.33,5.33,0,0,0-1.4-4A5.5,5.5,0,0,0,571.49,308.27Z"/><path class="cls-3" d="M591.23,322.95a5.67,5.67,0,0,1-2.81.67,4,4,0,0,1-3.5-2,8.74,8.74,0,0,1-1.28-4.8h11.31a19.11,19.11,0,0,0,0-2.33,6.73,6.73,0,0,0-2-4.58,6.59,6.59,0,0,0-4.72-1.64,6.37,6.37,0,0,0-5.36,2.35A9.63,9.63,0,0,0,581,316.7a9.89,9.89,0,0,0,2,6.63,6.67,6.67,0,0,0,5.33,2.35,8.24,8.24,0,0,0,4.15-.91,8.93,8.93,0,0,0,2.69-2.38l-1.78-1.44A7.34,7.34,0,0,1,591.23,322.95Zm-6.36-11.24a3.89,3.89,0,0,1,3.33-1.51,3.55,3.55,0,0,1,3.23,1.45,6.68,6.68,0,0,1,1,3.47h-8.76A6,6,0,0,1,584.88,311.71Z"/><path class="cls-3" d="M609.76,308.53L605.32,322l-5.11-13.49h-2.66l6.34,15.76a7.84,7.84,0,0,1-.42,1.55q-0.41,1.08-.79,1.92a5.89,5.89,0,0,1-.88,1.42,3.38,3.38,0,0,1-1.17.88,4,4,0,0,1-1.66.3,5.25,5.25,0,0,1-2-.39l-0.45,2.36a12.15,12.15,0,0,0,2.53.3,6.59,6.59,0,0,0,2.44-.4,4.84,4.84,0,0,0,1.72-1.15,8.53,8.53,0,0,0,1.32-1.85,22.15,22.15,0,0,0,1.15-2.55l6.73-18.15h-2.67Z"/><path class="cls-3" d="M304.77,248c0-1.19-.1-2.06-0.17-3l0-.71v-0.18l0-.36-0.05-.42-0.21-1.66c-0.14-1.1-.38-2.2-0.58-3.3s-0.51-2.18-.84-3.24a41.5,41.5,0,0,0-14.61-21.27,43.69,43.69,0,0,0-16.34-7.71,45.59,45.59,0,0,0-5.22-.95,50.31,50.31,0,0,0-17.1.88,15.09,15.09,0,0,1,3.08-3.49c1.47-1.48,3.1-2.92,4.79-4.41,7.86-6.94,16.76-14.81,16.76-32.2,0-30.72-28.94-53-68.81-53.07a52.24,52.24,0,0,0-9.08.74,15.64,15.64,0,0,0-10,6.13,10.3,10.3,0,0,0-1.69,5,9.53,9.53,0,0,0,9.06,10h0.45a9.51,9.51,0,0,0,2.44-.33L201,143a9.51,9.51,0,0,0,5.58,16.86H207c0.21,0,.41,0,0.62,0l5.28,14.55a9.48,9.48,0,0,0,3.84,17.17L220,208.35,202.71,187.9a9.59,9.59,0,0,0,.89-1.4,9.63,9.63,0,1,0-5.14,4.58L211.92,207l-25.36-10.84a9.5,9.5,0,0,0-17-6.56l-8.87-3.79a9.45,9.45,0,0,0-12.21-10.66l-4.93-8.73a9.48,9.48,0,0,0-6-16.36c-0.19,0-.37,0-0.56,0h-0.13c-6.29-.29-10.6,4.48-12.1,6.74a106.23,106.23,0,0,0-17.33,60c-0.29,28.92,10.26,55.65,29.7,75.28a95.44,95.44,0,0,0,68.18,28.69h0.08c39.87,0,68.81-22.35,68.81-53.07,0-17.39-8.91-25.26-16.76-32.2-3.42-3-6.58-5.82-8.72-9.17a10.55,10.55,0,0,1-.67-1.42l1.64-.7c0.84-.3,1.48-0.6,2.48-0.9a33.35,33.35,0,0,1,12.8-1.63,29,29,0,0,1,9.26,2.19,26.59,26.59,0,0,1,4.76,2.58,26.29,26.29,0,0,1,10,13.09c0.27,0.7.45,1.43,0.68,2.15s0.38,1.48.51,2.25l0.2,1.15,0.05,0.29v0.07a0.3,0.3,0,1,1,0-.08l0,0.18,0.08,0.71c0.11,0.93.25,2,.28,2.69a49.88,49.88,0,0,1,.18,5c0,0.86,0,1.73-.09,2.59s-0.11,1.73-.21,2.6a65.77,65.77,0,0,1-5.91,20.71,117,117,0,0,1-11.54,19.37c-4.43,6.15-9.24,12-14.05,17.59C249.51,328,240,338.33,232.59,348.08a113.26,113.26,0,0,0-9.26,14.05,59.17,59.17,0,0,0-5.11,12.27,40,40,0,0,0-1.49,8.61c-0.09,1-.06,1.79-0.07,2.32v0.8a3.06,3.06,0,0,0,6.12.21v-0.2l0-.66c0-.44,0-1.08.16-1.93a33.53,33.53,0,0,1,1.62-7.2,52.27,52.27,0,0,1,5-10.6,105.77,105.77,0,0,1,9.26-12.65c7.46-8.94,17.34-18.61,27.7-29.51,5.17-5.46,10.46-11.27,15.49-17.58a128.6,128.6,0,0,0,13.7-20.7A78.69,78.69,0,0,0,304,261c0.17-1.07.32-2.14,0.42-3.22s0.21-2.15.27-3.22A63.26,63.26,0,0,0,304.77,248ZM197,189.34a7.44,7.44,0,0,1-1.87.25,7.39,7.39,0,1,1,6.59-4,7.42,7.42,0,0,1-.41.69A7.34,7.34,0,0,1,197,189.34ZM254.84,186a6.72,6.72,0,0,1-.69-0.77,7.39,7.39,0,1,1,10.35,1.49,6.87,6.87,0,0,1-2,1A7.73,7.73,0,0,1,254.84,186Zm13.84-9.24a9.6,9.6,0,0,0-1-1.65A9.51,9.51,0,0,0,251,183.65l-8,4.82a9.53,9.53,0,0,0-2.25-1.59,9.51,9.51,0,0,0-11.29,14.93l-2.91,5.5-3.23-17a9.52,9.52,0,0,0,2.39-14.22l4.52-6.17a9.51,9.51,0,0,0,13-9.19c0-.16,0-0.32,0-0.48l9.13-2.79a9.5,9.5,0,0,0,17-.66,42.44,42.44,0,0,1,1,9.14A35.86,35.86,0,0,1,268.68,176.74Zm-25.26,16.33a7.39,7.39,0,0,1-7,9.68h0a7.37,7.37,0,0,1-5.9-3A7.39,7.39,0,0,1,236.4,188a7.3,7.3,0,0,1,3.35.81,7.41,7.41,0,0,1,1.3.85,7.32,7.32,0,0,1,2.3,3.25Zm-7,38.72a7.39,7.39,0,0,1,7,9.68l-0.08.2a7.32,7.32,0,0,1-2.3,3.26,7.42,7.42,0,0,1-1.3.85,7.39,7.39,0,0,1-10.38-8.87,7.43,7.43,0,0,1,3.67-4.3,7.29,7.29,0,0,1,3.34-.8h0Zm-10.14-70.45a7.37,7.37,0,0,1,7-7.63l0.33,0a7.4,7.4,0,0,1,7.38,7.13s0,0.05,0,.08a7.33,7.33,0,0,1-2,5.22,7.61,7.61,0,0,1-7.53,2,7,7,0,0,1-2.92-1.61A7.41,7.41,0,0,1,226.28,161.34Zm40-13.14a7.32,7.32,0,0,1,1.63,4c0,0.12,0,.24,0,0.36a7.35,7.35,0,0,1-2,5.3,7.61,7.61,0,0,1-10.45.36,7.4,7.4,0,0,1,10.09-10.82A7.49,7.49,0,0,1,266.3,148.2Zm-2.18-4.1a9.82,9.82,0,0,0-10.5,2.27,9.48,9.48,0,0,0-2.5,7.3L242,156.47a9.48,9.48,0,0,0-1.83-2.34,8.83,8.83,0,0,0-2.47-1.61l2.39-10.35h0.27A9.52,9.52,0,0,0,249,128.75,49.46,49.46,0,0,1,264.11,144.11Zm-18.73-16.84a7.39,7.39,0,0,1,.36,10.45,7.41,7.41,0,0,1-5.19,2.34h-0.22A7.39,7.39,0,1,1,245.39,127.26Zm-18.12-6.16a7.4,7.4,0,0,1-5.46,12.36h-0.38a7.39,7.39,0,0,1,.33-14.78h0.4A7.36,7.36,0,0,1,227.26,121.11ZM195.6,132.48a7.45,7.45,0,0,1-1.44.14h-0.38a7.39,7.39,0,0,1,.33-14.78h0.39c0.21,0,.42,0,0.62.06A7.39,7.39,0,0,1,195.6,132.48Zm4.54,0.14a9.51,9.51,0,0,0-1-15.51,58.47,58.47,0,0,1,6.27-.25,96.69,96.69,0,0,1,12,.76,9.5,9.5,0,0,0-1.76,15.69l-5.26,8.16a9.53,9.53,0,0,0-2.92-.61H207a9.52,9.52,0,0,0-2.48.34ZM207,157.75h-0.38A7.39,7.39,0,0,1,207,143h0.4A7.39,7.39,0,0,1,207,157.75Zm5.59,0.29a9.47,9.47,0,0,0,1.09-14.41l5.43-8.43a9.53,9.53,0,0,0,2.19.37h0.45a9.5,9.5,0,0,0,7.2-15.7,74.2,74.2,0,0,1,10,3.48,9.42,9.42,0,0,0-5.16,16.26,9.48,9.48,0,0,0,2.35,1.61l-2.42,10.47a9.55,9.55,0,0,0-7.09,2.91,9.53,9.53,0,0,0-.71,12.11l-4.72,6.44a9.39,9.39,0,0,0-2.91-.47l-0.4,0Zm3.71,31.25a7.39,7.39,0,0,1,2-14.5l0.36,0a7.34,7.34,0,0,1,5.64,3.07,7.42,7.42,0,0,1,1,2A7.36,7.36,0,0,1,216.34,189.29Zm8,67.36a7.31,7.31,0,0,1-5.64,3.07l-0.36,0a7.38,7.38,0,0,1-2-14.5,7.28,7.28,0,0,1,2-.29A7.4,7.4,0,0,1,224.36,256.65ZM177.09,188a7.39,7.39,0,0,1,7,5.11,7.4,7.4,0,0,1-7,9.68,7.39,7.39,0,0,1-7-5.11A7.4,7.4,0,0,1,177.09,188Zm-27.57-10.91a7.39,7.39,0,1,1,1.77,14.56h0a7.38,7.38,0,0,1-7.12-5.47l0-.07a7.34,7.34,0,0,1,1.93-7.06A7.44,7.44,0,0,1,149.51,177.06Zm-9.38-24.17c0.2,0.09.4,0.18,0.59,0.3a7.32,7.32,0,0,1,1.7,11.33,7.43,7.43,0,0,1-3.37,2.12,7.34,7.34,0,0,1-2.09.32h0A7.39,7.39,0,1,1,140.14,152.89Zm-12.66,7a9.44,9.44,0,0,0,12.64,8.6l4.87,8.62a9.25,9.25,0,0,0-3,5l-9.42-.09c0-.13,0-0.26-0.08-0.39a9.45,9.45,0,0,0-13.22-6.22A98.29,98.29,0,0,1,127.48,159.9Zm-10.55,20.39a7.28,7.28,0,0,1,.93-1.23,7.36,7.36,0,0,1,9.19-1.38A7.34,7.34,0,0,1,130.4,182l0,0.16a7.46,7.46,0,0,1-.79,5.6,7.59,7.59,0,0,1-10.12,2.61,7.33,7.33,0,0,1-3.4-4.52,7.42,7.42,0,0,1-.19-1.13A7.34,7.34,0,0,1,116.93,180.29Zm-2,8.19a9.5,9.5,0,0,0,8.4,5.08,9.49,9.49,0,0,0,9.3-7.52l9.39,0.09c0,0.16.06,0.32,0.1,0.48a9.48,9.48,0,0,0,16.24,4l9.29,4a9.5,9.5,0,0,0,16.1,7.6l27.35,11.69H178.7a9.45,9.45,0,0,0-14.18-4.48l-0.16.11a9.62,9.62,0,0,0-.89.71l-0.4.38-0.34.37a9.51,9.51,0,0,0-.61.76l-0.09.11a9.69,9.69,0,0,0-.61,1l-0.07.11c0,0.08-.07.16-0.11,0.24s-0.14.31-.21,0.46-0.11.27-.15,0.41-0.08.19-.11,0.29,0,0.13-.05.19h-8a9.65,9.65,0,0,0-9.22-6.77,9.44,9.44,0,0,0-6.69,2.87l-0.17.19-8.48-4.75a9.49,9.49,0,0,0,.42-2.93,9.61,9.61,0,0,0-9.64-9.39,9.42,9.42,0,0,0-5.67,2Q113.94,192.06,114.89,188.48Zm61.58,32-0.12.24a7.44,7.44,0,0,1-1.08,1.54l0,0a7.55,7.55,0,0,1-.81.74l-0.24.19a7.24,7.24,0,0,1-.83.52c-0.18.09-.35,0.19-0.53,0.27h0a7.41,7.41,0,0,1-3,.62,7.37,7.37,0,0,1-6.91-4.83c0-.09-0.08-0.19-0.11-0.28a7.36,7.36,0,0,1-.36-2c0-.11,0-0.21,0-0.32s0-.13,0-0.2a7.41,7.41,0,0,1,.36-2c0.06-.17.12-0.34,0.19-0.51a7.37,7.37,0,0,1,13.36-.66l0.06,0.1c0.1,0.2.19,0.41,0.28,0.62l0,0c0.08,0.21.15,0.41,0.21,0.62l0,0.12a7.3,7.3,0,0,1,.2,1h0a7.35,7.35,0,0,1-.3,3.19c-0.07.22-.15,0.44-0.25,0.66l-0.06.14Zm-50,10.88a7.42,7.42,0,0,1-7.39,7.29H119a7.32,7.32,0,0,1-5.2-2.23,7.43,7.43,0,0,1-1-1.32,7.3,7.3,0,0,1-.77-5.9,7.38,7.38,0,0,1,12.38-3.09l0,0a7.32,7.32,0,0,1,1.89,3.5A7.4,7.4,0,0,1,126.44,231.35Zm-0.58-6.73a9.48,9.48,0,0,0-14.23.71q-0.28-4.22-.25-8.52,0-3.89.19-7.72a9.5,9.5,0,0,0,7.46,3.66h0.13a9.44,9.44,0,0,0,6.69-2.88c0.11-.12.22-0.24,0.32-0.37l8.4,4.7a9.39,9.39,0,0,0-.07,5.86L126.21,225C126.1,224.89,126,224.75,125.86,224.62ZM126.23,205a7.32,7.32,0,0,1-1.88,3.42l-0.06.05a7.34,7.34,0,0,1-5.14,2.18H119a7.42,7.42,0,0,1-7.15-5.57,7.28,7.28,0,0,1,.68-5.4,7.42,7.42,0,0,1,1.17-1.58,7.34,7.34,0,0,1,5.18-2.23,7.48,7.48,0,0,1,7.5,7.3A7.4,7.4,0,0,1,126.23,205Zm10,12.36a7.38,7.38,0,0,1,2.09-5.26l0.23-.22a7.31,7.31,0,0,1,5-2,7.53,7.53,0,0,1,7,4.65,7.19,7.19,0,0,1,.54,2.64,7.4,7.4,0,0,1-7.29,7.49h-0.1A7.43,7.43,0,0,1,136.21,217.35Zm-17.27,23.42h0.11a9.51,9.51,0,0,0,9.1-12.28l8.34-5a9.49,9.49,0,0,0,7.11,3.23h0.13a9.53,9.53,0,0,0,9-7h7.9a9.55,9.55,0,0,0,9.19,7,9.49,9.49,0,0,0,8.95-6.35h32.78l-27.86,11.91a9.5,9.5,0,0,0-16.1,7.6l-9.29,4a9.49,9.49,0,0,0-16.24,4c0,0.16-.07.32-0.1,0.47l-9.39.09A9.5,9.5,0,0,0,115,245.79q-0.92-3.4-1.61-6.88A9.43,9.43,0,0,0,118.94,240.77Zm51.56,1.77a7.45,7.45,0,1,1,1,1.53A7.34,7.34,0,0,1,170.5,242.54Zm-12.06,9.63a7.34,7.34,0,0,1-8.93,5.32,7.44,7.44,0,0,1-3.46-2,7.4,7.4,0,0,1-1.93-7.06l0-.07A7.39,7.39,0,0,1,158.44,252.17Zm-28,.17,0,0.16a7.34,7.34,0,0,1-3.35,4.36,7.63,7.63,0,0,1-8.68-.9,6.88,6.88,0,0,1-1.44-1.71,7.33,7.33,0,0,1-.91-5c0-.19.07-0.38,0.12-0.57a7.4,7.4,0,0,1,7.15-5.55A7.4,7.4,0,0,1,130.45,252.34ZM123.3,260a9.51,9.51,0,0,0,9.2-7.14c0-.13.05-0.26,0.08-0.39l9.42-.09a9.26,9.26,0,0,0,3,5L140.12,266a9.46,9.46,0,0,0-12.58,7.87,97.77,97.77,0,0,1-7.8-14.6A9.49,9.49,0,0,0,123.3,260Zm20,11.23a7.39,7.39,0,0,1-2.61,10.12,7.62,7.62,0,0,1-8.27-.57,7,7,0,0,1-1.85-2A7.38,7.38,0,0,1,142.43,270,7.28,7.28,0,0,1,143.34,271.24Zm-3.4,18.06q-2.38-2.4-4.56-4.95a9.4,9.4,0,0,0,1.6.15,9.49,9.49,0,0,0,6.54-16.4l4.93-8.73a9.48,9.48,0,0,0,12.21-10.66l8.87-3.79a9.5,9.5,0,0,0,17-6.56l24-10.26L197.8,243.22a9.57,9.57,0,0,0-2.68-.38,9.52,9.52,0,0,0-8.47,13.83c0.08,0.16.19,0.31,0.28,0.46l-7.85,9.3a9.5,9.5,0,0,0-13.33,11.14c0,0.16.1,0.31,0.16,0.46l-8.39,5a9.51,9.51,0,0,0-16.5,7.28ZM201.71,249a7.4,7.4,0,0,1-6.58,10.75,7.43,7.43,0,0,1-3-.62,7.35,7.35,0,0,1-3.63-3.43c-0.05-.1-0.09-0.21-0.14-0.32A7.39,7.39,0,0,1,195.12,245a7.48,7.48,0,0,1,1.14.09,7.35,7.35,0,0,1,5.4,3.86Zm-20.35,29.53A7.4,7.4,0,0,1,167.79,277l0-.08a7.38,7.38,0,0,1,9.89-8.81,7.47,7.47,0,0,1,.81.39A7.41,7.41,0,0,1,181.36,278.54Zm-6.45,33.34a7.7,7.7,0,1,1,.69,0C175.37,311.86,175.14,311.88,174.91,311.87Zm-18-18.81a7.38,7.38,0,0,1-9.22,3.27,7.47,7.47,0,0,1-.82-0.39,7.32,7.32,0,0,1-2.74-2.64,7.41,7.41,0,0,1-.78-1.79,7.39,7.39,0,0,1,14.21-4.07c0,0.07,0,.13,0,0.2A7.33,7.33,0,0,1,156.94,293.06Zm-5.84,5.89a9.49,9.49,0,0,0,8.52-12.09c0-.12-0.08-0.23-0.12-0.34l8.43-5.07a9.34,9.34,0,0,0,5.12,2.83l0.19,10.9a9.49,9.49,0,0,0-7.38,11.74,9.64,9.64,0,0,0,.38,1.12A92.25,92.25,0,0,1,151.1,298.94ZM179.24,313a9.47,9.47,0,0,0-2-17.78l-0.19-11A9.48,9.48,0,0,0,183,270l7.77-9.2a9.51,9.51,0,0,0,4.37,1.08A9.52,9.52,0,0,0,203.6,248a9.61,9.61,0,0,0-.5-0.84l16.62-19.68L216.77,243a9.49,9.49,0,0,0-3.84,17.17l-5.28,14.55c-0.22,0-.43,0-0.65,0h-0.44A9.51,9.51,0,0,0,201,291.55l-4.41,8.59a9.6,9.6,0,0,0-2.47-.33h-0.44a9.51,9.51,0,0,0-7.29,15Q182.77,314.06,179.24,313Zm35.17-29.19a7.32,7.32,0,0,1-1.86,5.27l0,0.06a7.39,7.39,0,0,1-3.29,2.09,7.29,7.29,0,0,1-1.8.32H207a7.44,7.44,0,0,1-1.47-.15,7.39,7.39,0,0,1,1.11-14.62H207A7.4,7.4,0,0,1,214.41,283.82Zm-18.06,32.55a7.29,7.29,0,0,1-1.82.33h-0.4a7.39,7.39,0,0,1-.37-14.78h0.39a7.44,7.44,0,0,1,1.45.14A7.39,7.39,0,0,1,196.35,316.37Zm9,0.44H205.3c-1.71,0-3.42-.05-5.12-0.15a9.67,9.67,0,0,0,1-1,9.51,9.51,0,0,0-1.06-13.78l4.41-8.57a9.52,9.52,0,0,0,2.48.34h0.47a9.5,9.5,0,0,0,2.9-.61l5.25,8.15a9.49,9.49,0,0,0,.59,15A97.31,97.31,0,0,1,205.38,316.8Zm21.89-3.37a7.43,7.43,0,0,1-1.24,1.09,7.31,7.31,0,0,1-3.85,1.33h-0.4a7.39,7.39,0,0,1-5-12.85,7.52,7.52,0,0,1,4.6-1.93h0.39A7.4,7.4,0,0,1,227.26,313.44Zm2.56,0.11A9.5,9.5,0,0,0,221.76,299h-0.44a9.47,9.47,0,0,0-2.17.37l-5.43-8.42c0.12-.11.23-0.22,0.34-0.34a9.5,9.5,0,0,0-1.44-14.06L218,261.84l0.4,0a9.38,9.38,0,0,0,2.91-.47l4.72,6.44A9.5,9.5,0,0,0,233.66,283h0.16l2.4,10.39a8.84,8.84,0,0,0-2.36,1.57,9.5,9.5,0,0,0,3.64,16A74.71,74.71,0,0,1,229.82,313.55Zm10.07-36.12a7.35,7.35,0,0,1-1.18,1.43,6.77,6.77,0,0,1-1.51,1.06,7.65,7.65,0,0,1-3.88.83A7.28,7.28,0,1,1,239.89,277.43Zm0.68,17.06a7.42,7.42,0,0,1,5.19,2.34,7.38,7.38,0,0,1-.06,10.14l-0.3.31a7.11,7.11,0,0,1-3.63,1.77,7.57,7.57,0,0,1-6.82-2.13,7.4,7.4,0,0,1,5.4-12.44h0.22Zm8.88,10.15a9.55,9.55,0,0,0,.41-2.44,9.45,9.45,0,0,0-2.55-6.82,9.57,9.57,0,0,0-7.2-2.9l-2.41-10.42a9.4,9.4,0,0,0,4.28-4l9.13,2.79a9.49,9.49,0,0,0,12.22,9.92A49.75,49.75,0,0,1,249.44,304.64Zm4.91-26.94a7.39,7.39,0,0,1,13.6,3.66c0,0.19,0,.38,0,0.58a7.35,7.35,0,0,1-2.35,5.15l-0.19.16a7.61,7.61,0,0,1-10.26-.52A7.4,7.4,0,0,1,254.34,277.7Zm14.74-.26a9.54,9.54,0,0,0-1.56-2.25,9.79,9.79,0,0,0-13.44-.47,9.46,9.46,0,0,0-1.82,2.34l-9.13-2.79a9.49,9.49,0,0,0-2.5-7.3,9.84,9.84,0,0,0-10.39-2.31l-4.56-6.22a9.52,9.52,0,0,0-2.39-14.22l3.23-17,2.91,5.5A9.51,9.51,0,0,0,243,246.07l8,4.82a9.51,9.51,0,0,0,9.06,12.38,9.46,9.46,0,0,0,8.78-5.86,36.35,36.35,0,0,1,1.37,10.29A42.38,42.38,0,0,1,269.08,277.44Zm-14.25-28.89a7.44,7.44,0,0,1,5.24-2.19,7.32,7.32,0,0,1,3.45.86,7.45,7.45,0,0,1,1,.62,7.35,7.35,0,0,1,2.89,4.86,7.48,7.48,0,0,1,.07,1,7.32,7.32,0,0,1-1.47,4.52,7.59,7.59,0,0,1-10.35,1.49A7.33,7.33,0,0,1,254.83,248.55Zm-2.76,79c2.75-3.1,5.56-6.27,8.39-9.53,4-4.66,9.3-10.88,14.22-17.65a118.08,118.08,0,0,0,11.81-19.63,67.64,67.64,0,0,0,6.19-21.3,56.77,56.77,0,0,0,.19-10.57c0-.65-0.11-1.37-0.2-2.17l-0.18-1.54-0.27-1.55c-0.08-.5-0.19-1-0.32-1.52-0.07-.27-0.13-0.54-0.19-0.82l0-.18c-0.08-.25-0.15-0.5-0.22-0.75-0.14-.5-0.29-1-0.45-1.43a28.34,28.34,0,0,0-16.1-17.21,31.5,31.5,0,0,0-9.71-2.32c-0.87-.07-1.76-0.1-2.65-0.1a35.27,35.27,0,0,0-11,1.74c-0.72.21-1.27,0.42-1.9,0.66l-1,.36-1.49.63-0.24.1-1.23.52c-0.82.35-1.65,0.65-2.49,0.93a20.85,20.85,0,0,0,1,2.22c0.24,0.47.48,0.95,0.75,1.4,2.44,4.08,6.08,7.31,9.85,10.64,2.1,1.86,4.22,3.74,6.19,5.81-0.3,0-.6,0-0.91,0a9.56,9.56,0,0,0-7.1,3.19l-7.79-4.67c0.09-.21.17-0.43,0.25-0.65a9.51,9.51,0,0,0-9-12.45,9.58,9.58,0,0,0-1.06.06l-3.68-7a22.26,22.26,0,0,0,6.74-.07,27.3,27.3,0,0,0,6.39-1.8l3-1.24c1-.33,1.87-0.7,3-1a38,38,0,0,1,14.63-1.5,34.53,34.53,0,0,1,8.16,1.8,31.84,31.84,0,0,1,7.86,4.13,30.32,30.32,0,0,1,11.08,15.31c0.28,0.79.47,1.62,0.71,2.44s0.39,1.67.51,2.52l0.2,1.28,0,0.32V245h0l0,0.18,0.07,0.71c0.09,0.94.21,1.93,0.23,2.78a58.84,58.84,0,0,1-.36,10.91,69.07,69.07,0,0,1-6.62,21.54,120.08,120.08,0,0,1-12.18,19.58c-4.61,6.15-9.57,11.94-14.5,17.46-4,4.43-7.89,8.69-11.67,12.84ZM302,260.68A76.33,76.33,0,0,1,294,284.44a126.15,126.15,0,0,1-13.42,20.43c-5.37,6.79-11,12.93-15.32,17.52-2.94,3.12-5.85,6.14-8.68,9.08l-0.19.19L253.26,335c3.8-4.08,7.79-8.3,11.84-12.74,5-5.54,10.19-11.39,15-17.71A126.37,126.37,0,0,0,293.19,284a75.73,75.73,0,0,0,7.49-23.52,65.43,65.43,0,0,0,.53-12.29c0-1.07-.13-2-0.21-2.94l-0.06-.71,0-.18,0-.26-0.05-.38-0.22-1.53c-0.14-1-.39-2-0.58-3s-0.5-2-.82-3a38.12,38.12,0,0,0-5.36-10.79,36.92,36.92,0,0,0-8.13-8.26,39.18,39.18,0,0,0-9.64-5.2,42,42,0,0,0-9.92-2.31,45.56,45.56,0,0,0-17.55,1.58c-1.25.32-2.54,0.81-3.71,1.21l-3,1.19a19.54,19.54,0,0,1-4.68,1.27,13.8,13.8,0,0,1-6.22-.4c-0.27-.09-0.5-0.18-0.7-0.26l5-9.48a9.58,9.58,0,0,0,1.06.06,9.51,9.51,0,0,0,9-12.45c-0.07-.22-0.16-0.44-0.25-0.65L253,187.1a9.55,9.55,0,0,0,7.1,3.19h0c-1.71,1.72-3.51,3.31-5.3,4.89-3.7,3.27-7.29,6.44-9.73,10.42a21,21,0,0,0-1.09,2,20.76,20.76,0,0,0-1.13,2.94l1-.4,0.89-.3c0.93-.32,2-0.66,3-0.93l0.2-.06,0.08,0a47.91,47.91,0,0,1,18.34-1.4,43.66,43.66,0,0,1,7.12,1.45,40.94,40.94,0,0,1,13.37,6.71,39.52,39.52,0,0,1,13.89,20.15c0.22,0.67.39,1.39,0.57,2.12l0.42,1.94c0.14,0.7.28,1.41,0.37,2.12l0.25,1.94,0.16,2c0.05,0.68.1,1.37,0.12,2.23A66.56,66.56,0,0,1,302,260.68Z"/><path class="cls-3" d="M139.95,124.11a9.47,9.47,0,0,0,4.15-1l6,7.61A9.52,9.52,0,1,0,162.65,129l3.74-9.31c0.28,0,.57,0,0.85,0a9.57,9.57,0,1,0-4.65-1.24l-3.62,9a9.28,9.28,0,0,0-3-.05,9.47,9.47,0,0,0-2.83.88l-6-7.59c0.11-.13.23-0.26,0.34-0.4a9.44,9.44,0,0,0,1.81-7,9.55,9.55,0,0,0-10.76-8.08,9.51,9.51,0,0,0-8.07,10.75A9.55,9.55,0,0,0,139.95,124.11Zm20-12.87a7.39,7.39,0,1,1,14.64-2.08,7.39,7.39,0,0,1-7.32,8.44h0a7.32,7.32,0,0,1-3.84-1.1A7.41,7.41,0,0,1,159.94,111.24ZM154.53,130a7.21,7.21,0,0,1,2.83-.57,7.28,7.28,0,0,1,.8,0A7.41,7.41,0,1,1,154.53,130ZM134,110.15a7.33,7.33,0,0,1,4.87-2.88,7.39,7.39,0,0,1,8.36,6.28,7.32,7.32,0,0,1-1.39,5.44l0,0A7.39,7.39,0,1,1,134,110.15Z"/><path class="cls-3" d="M111,100.06a9.52,9.52,0,1,0-12.28,2.48l-3.68,9A9.51,9.51,0,0,0,84,122.15a9.51,9.51,0,0,0,17,4.48A9.48,9.48,0,0,0,98.75,113l3.8-9.27c0.3,0,.6,0,0.91,0a9.72,9.72,0,0,0,1.29-.09A9.44,9.44,0,0,0,111,100.06Zm-10.32,19.82a7.39,7.39,0,0,1-6.34,8.32,7.47,7.47,0,0,1-8.32-6.33,7.4,7.4,0,0,1,6.34-8.32,7.52,7.52,0,0,1,1-.07,7.28,7.28,0,0,1,.85.06A7.43,7.43,0,0,1,100.72,119.88Zm3.74-18.26a7.3,7.3,0,0,1-1.06.05,7.39,7.39,0,0,1-.92-14.7,7.5,7.5,0,0,1,1-.07,7.39,7.39,0,0,1,5.87,11.87A7.32,7.32,0,0,1,104.46,101.62Z"/><path class="cls-3" d="M58.82,83.32a9.51,9.51,0,0,0,1.27,18.94,9.84,9.84,0,0,0,1.29-.09A9.51,9.51,0,1,0,58.82,83.32Zm2.27,16.75a7.39,7.39,0,1,1-2-14.65,7.54,7.54,0,0,1,1-.07A7.39,7.39,0,0,1,61.1,100.07Z"/><path class="cls-3" d="M98.84,65.55a9.7,9.7,0,0,0,1.29-.09A9.49,9.49,0,1,0,98.84,65.55Zm-1-16.84a7.52,7.52,0,0,1,1-.07,7.39,7.39,0,0,1,5.87,11.87,7.34,7.34,0,0,1-4.89,2.85A7.39,7.39,0,1,1,97.86,48.71Z"/><path class="cls-3" d="M145.73,82.9a9.51,9.51,0,1,0-9.42-8.24A9.5,9.5,0,0,0,145.73,82.9Zm-1-16.84a7.4,7.4,0,0,1,8.32,6.33A7.4,7.4,0,1,1,144.74,66.06Z"/></svg>